<svg width="62" height="62" viewBox="0 0 62 62" fill="none" xmlns="http://www.w3.org/2000/svg">
<path d="M31 0C48.1208 5.15408e-07 62 13.8792 62 31C62 48.1208 48.1208 62 31 62C13.8792 62 5.1544e-07 48.1208 0 31C0 13.8792 13.8792 0 31 0ZM32.0215 11.3662C21.8612 11.3663 13.5921 19.6354 13.5879 29.7988C13.5865 33.0477 14.4357 36.2191 16.0488 39.0146L13.4336 48.5664L23.2051 46.0029C25.8975 47.4715 28.9295 48.246 32.0146 48.2471H32.0215C42.1849 48.2429 50.451 39.9747 50.4551 29.8135C50.457 24.8882 48.5417 20.2566 45.0615 16.7725C41.5813 13.2882 36.9526 11.3683 32.0215 11.3662Z" fill="#2B2A29"/>
<path d="M32.0283 14.4801C36.1204 14.4817 39.9668 16.0774 42.8594 18.9733C45.752 21.8693 47.3443 25.7184 47.3428 29.8122C47.3394 38.2603 40.4661 45.1335 32.0215 45.1335H32.0156C29.2665 45.1324 26.57 44.3945 24.2178 42.9987L23.6582 42.6667L17.8594 44.1872L19.4072 38.5338L19.043 37.9538C17.5093 35.5145 16.6991 32.6953 16.7002 29.8004C16.7035 21.353 23.5772 14.4801 32.0283 14.4801ZM25.4951 21.2868C25.1881 21.2869 24.6896 21.4021 24.2676 21.8629C23.8454 22.324 22.6554 23.4381 22.6553 25.7047C22.6553 27.9715 24.3053 30.1614 24.5361 30.4694C24.7664 30.7769 27.7838 35.4294 32.4043 37.4245C33.5032 37.899 34.3613 38.1829 35.0303 38.3952C36.1333 38.7456 37.1373 38.6964 37.9307 38.5778C38.8157 38.4456 40.6561 37.4632 41.04 36.3874C41.4237 35.3113 41.4237 34.389 41.3086 34.1969C41.1935 34.0048 40.8863 33.8895 40.4258 33.6588C39.965 33.4282 37.7006 32.3146 37.2783 32.1608C36.8562 32.0072 36.5492 31.9303 36.2422 32.3913C35.9352 32.8523 35.0531 33.8892 34.7842 34.1969C34.5155 34.5042 34.2465 34.5428 33.7861 34.3122C33.3255 34.0816 31.8413 33.5953 30.082 32.026C28.7128 30.8047 27.7882 29.2968 27.5195 28.8356C27.2509 28.3745 27.4911 28.1248 27.7217 27.8952C27.9288 27.6888 28.182 27.3573 28.4121 27.0885C28.6424 26.8197 28.7195 26.6272 28.873 26.32C29.0264 26.0126 28.9501 25.7438 28.835 25.5133C28.7198 25.2828 27.7989 23.0158 27.415 22.0934C27.0411 21.1953 26.6606 21.3166 26.3779 21.3024C26.1097 21.2889 25.802 21.2868 25.4951 21.2868Z" fill="#2B2A29"/>
</svg>
