<svg width="62" height="62" viewBox="0 0 62 62" fill="none" xmlns="http://www.w3.org/2000/svg">
<path d="M31 0C48.1208 5.15408e-07 62 13.8792 62 31C62 48.1208 48.1208 62 31 62C13.8792 62 5.1544e-07 48.1208 0 31C0 13.8792 13.8792 0 31 0ZM31 19.6338C31 19.6338 20.6597 19.6332 18.0811 20.3428C16.6582 20.7332 15.5375 21.8838 15.1572 23.3447C14.4678 25.9873 14.4668 31.4949 14.4668 31.5166C14.4668 31.5166 14.4665 37.0405 15.1572 39.6885C15.5375 41.1493 16.6583 42.2998 18.0811 42.6904C20.6597 43.3998 31 43.4004 31 43.4004C31.0031 43.4004 41.3409 43.3997 43.9189 42.6904C45.3416 42.2997 46.4625 41.1493 46.8428 39.6885C47.5337 37.0405 47.5332 31.5166 47.5332 31.5166C47.5332 31.4949 47.5324 25.9873 46.8428 23.3447C46.4625 21.8839 45.3417 20.7332 43.9189 20.3428C41.3409 19.6333 31.0031 19.6338 31 19.6338Z" fill="#2B2A29"/>
<path d="M27.9 37.2V26.8667L36.1667 32.0335L27.9 37.2Z" fill="#2B2A29"/>
</svg>
